<svg id="Layer_1_copy_2" data-name="Layer 1 copy 2" xmlns="http://www.w3.org/2000/svg" viewBox="0 0 722.6 149.87"><defs><style>.cls-1{fill:#06f;}.cls-2{fill:#fc0;}.cls-3{fill:#999;}.cls-4{fill:#393;}</style></defs><title>banner-front-logo</title><path class="cls-1" d="M130.58,183.25a27.84,27.84,0,0,1-14.13,3.41,29,29,0,0,1-11-2.11,26.21,26.21,0,0,1-9.11-6.11,29.83,29.83,0,0,1-6.21-9.52,31.73,31.73,0,0,1-2.31-12.45c0-.18,0-.47,0-.47H36.52s0,.29,0,.47a75.16,75.16,0,0,0,6,30.52A72.28,72.28,0,0,0,59,210.62a73.12,73.12,0,0,0,24.54,15.32,83.75,83.75,0,0,0,30.16,5.4q17.82,0,31.85-5.71a70.79,70.79,0,0,0,23.65-15.33l-29.26-35.06A29.91,29.91,0,0,1,130.58,183.25Z" transform="translate(-31.91 -81.47)"/><path class="cls-2" d="M87.92,160c-.07-2-.12-2.28-.12-3.34A35.8,35.8,0,0,1,90,143.81,28.52,28.52,0,0,1,96.12,134a26.59,26.59,0,0,1,9.11-6.15,29.71,29.71,0,0,1,11.22-2.12,32.45,32.45,0,0,1,13.43,2.7,25.81,25.81,0,0,1,10,7.91l29.26-35.26A72,72,0,0,0,144.7,86.78a90.27,90.27,0,0,0-31-5.31,85,85,0,0,0-30.16,5.31A72.51,72.51,0,0,0,59,101.91a70.78,70.78,0,0,0-16.43,23.64,77.79,77.79,0,0,0-6,31.11c0,1,0,1.34.07,3.34Z" transform="translate(-31.91 -81.47)"/><path class="cls-3" d="M47,111.11v.31c-9,9.34-15.09,26.06-15.09,45.13S38,192.35,47,201.69v-.3l50.43-45.14Z" transform="translate(-31.91 -81.47)"/><path class="cls-3" d="M159.33,155a45.63,45.63,0,0,1,3.61-18.49,41,41,0,0,1,9.94-14,44.15,44.15,0,0,1,15-8.91,57.79,57.79,0,0,1,37.58,0,44.87,44.87,0,0,1,15,8.91,40.61,40.61,0,0,1,10,14A45.63,45.63,0,0,1,254.13,155a46.88,46.88,0,0,1-3.62,18.67,42.09,42.09,0,0,1-10,14.4,44.73,44.73,0,0,1-15,9.21,55.78,55.78,0,0,1-37.58,0,44,44,0,0,1-15-9.21,42.5,42.5,0,0,1-9.94-14.4A46.88,46.88,0,0,1,159.33,155Zm30.47,0a22.31,22.31,0,0,0,1.27,7.71,18.48,18.48,0,0,0,3.49,6,15.35,15.35,0,0,0,5.36,3.91,16.57,16.57,0,0,0,6.75,1.39,15.95,15.95,0,0,0,12-5.3,18.11,18.11,0,0,0,3.56-6,22.55,22.55,0,0,0,1.26-7.71,21.71,21.71,0,0,0-1.26-7.53,16.31,16.31,0,0,0-3.56-5.78,16.51,16.51,0,0,0-5.36-3.67,16.74,16.74,0,0,0-6.68-1.33,17.22,17.22,0,0,0-6.75,1.33,15.79,15.79,0,0,0-5.36,3.67,16.61,16.61,0,0,0-3.49,5.78A21.48,21.48,0,0,0,189.8,155Z" transform="translate(-31.91 -81.47)"/><path class="cls-3" d="M294.6,149.89l1.32,48.19H269.18V112.79h37.51l15.43,45.9h.61l13.38-45.9h38.71v85.29H346.88l.84-47.94L347,150l-15.9,48.07H310.86L295.2,149.89Z" transform="translate(-31.91 -81.47)"/><path class="cls-3" d="M422.16,170.61v27.47H393.62V112.79h36.61A59.13,59.13,0,0,1,443,114.18a32.47,32.47,0,0,1,11.21,4.7,24.8,24.8,0,0,1,8,8.79q3,5.49,3,13.79A28.46,28.46,0,0,1,462.22,155a25.92,25.92,0,0,1-7.83,9,32.57,32.57,0,0,1-11.21,5.06,53.82,53.82,0,0,1-12.95,1.56Zm0-35.53v13.73h6a11.34,11.34,0,0,0,6-1.63q2.72-1.62,2.71-5.48a6.66,6.66,0,0,0-.72-3.31,5.28,5.28,0,0,0-2-2,9.16,9.16,0,0,0-2.83-1,16.67,16.67,0,0,0-3.13-.3Z" transform="translate(-31.91 -81.47)"/><path class="cls-3" d="M479,112.79h28.91v85.29H479Z" transform="translate(-31.91 -81.47)"/><path class="cls-3" d="M526.84,112.79h28.91v60.59h28.31v24.7H526.84Z" transform="translate(-31.91 -81.47)"/><path class="cls-4" d="M596,112.79h58.66v23.85H623V144h29.76v22.29H623v7.95h33.73v23.85H596Z" transform="translate(-31.91 -81.47)"/><path class="cls-4" d="M671.63,198.08V112.79h31.8a91.8,91.8,0,0,1,19.33,2A44.68,44.68,0,0,1,739,121.65a35.4,35.4,0,0,1,11.27,12.95q4.22,8.07,4.21,20.35,0,11.2-4,19.4a38.06,38.06,0,0,1-10.78,13.43,45.76,45.76,0,0,1-15.54,7.77,66.2,66.2,0,0,1-18.31,2.53Zm27.58-61v36.25h5.3q10.13,0,15.54-4.38t5.42-14.35q0-8.28-5.42-12.9t-14.45-4.62Z" transform="translate(-31.91 -81.47)"/></svg>